# xmcd
#
# Track frame offsets:
#	150
#	14776
#	29803
#	47366
#	65987
#	84445
#	101258
#	114592
#	127568
#	142813
#	164770
#	182350
#	196936
#
# Disc length: 2803 seconds
#
# Revision: 0
# Processed by: cddbd v1.5.2PL0 Copyright (c) Steve Scherf et al.
# Submitted via: EasyCDDAExtractor 11.1.0.1
#
DISCID=aa0af10d
DTITLE=Wenche Hartmann - Songwriter
DYEAR=2011
DGENRE=country
TTITLE0=When you came home
TTITLE1=The day that pigs can fly
TTITLE2=Goodbye song
TTITLE3=Simple man
TTITLE4=Dixon
TTITLE5=Homeland
TTITLE6=I don't feel like crying anymore
TTITLE7=I'm gonna go
TTITLE8=Beyond these walls
TTITLE9=Demi dances on his grave
TTITLE10=When you kiss her
TTITLE11=Annie is over him
TTITLE12=Broken guitar man
EXTD=
EXTT0=
EXTT1=
EXTT2=
EXTT3=
EXTT4=
EXTT5=
EXTT6=
EXTT7=
EXTT8=
EXTT9=
EXTT10=
EXTT11=
EXTT12=
PLAYORDER=
